<svg xmlns="http://www.w3.org/2000/svg" xml:space="preserve" viewBox="0 0 470.29 514.25"><path fill="#2D374B" d="m291.13 237.47 35.654-60.5 96.103 149.68.046 28.727-.313-197.67a14.893 14.893 0 0 0-6.887-11.859l-173.02-99.525c-4.045-1.99-9.18-1.967-13.22.063-.546.272-1.06.57-1.548.895l-.604.379-167.94 97.322-.651.296c-.838.385-1.686.875-2.48 1.444a14.832 14.832 0 0 0-5.983 9.448 14.89 14.89 0 0 0-.214 1.749l.264 161.08 89.515-138.74c11.271-18.397 35.825-24.323 58.62-24.001l26.753.706-157.64 252.8 18.582 10.697 159.52-263.24 70.51-.256-159.11 269.88 66.306 38.138 7.922 4.556c3.351 1.362 7.302 1.431 10.681.21l175.45-101.68-33.544 19.438-92.775-150.04zm13.602 195.93-66.969-105.11 40.881-69.371 87.952 138.63-61.864 35.851z"/><path fill="#28A0F0" d="m237.77 328.29 66.97 105.11 61.86-35.86-87.95-138.62zM422.94 355.38l-.046-28.727-96.103-149.68-35.654 60.5 92.774 150.04 33.544-19.438a14.87 14.87 0 0 0 5.49-10.825l-.005-1.869z"/><path fill="#fff" d="m20.219 382.47 47.369 27.296 157.63-252.8-26.753-.706c-22.795-.322-47.35 5.604-58.62 24.001L50.33 319.001l-30.115 46.271v17.194zM316.2 156.96l-70.51.26L86.17 420.46l55.76 32.1 15.16-25.71z"/><path fill="#96BEDC" d="M452.65 156.6c-.59-14.746-8.574-28.245-21.08-36.104l-175.29-100.8c-12.371-6.229-27.825-6.237-40.218-.004-1.465.739-170.46 98.752-170.46 98.752a44.953 44.953 0 0 0-6.711 3.975c-11.164 8.001-17.969 20.435-18.668 34.095v208.76l30.115-46.271-.263-161.08c.035-.589.109-1.169.214-1.741a14.834 14.834 0 0 1 5.983-9.456c.795-.569 172.68-100.06 173.23-100.34 4.04-2.029 9.175-2.053 13.22-.063l173.02 99.523a14.893 14.893 0 0 1 6.887 11.859v199.54c-.209 4.231-1.882 8.152-5.172 10.825l-33.544 19.438-17.308 10.031-61.864 35.852-62.737 36.357c-3.379 1.221-7.33 1.152-10.681-.21l-74.228-42.693-15.163 25.717 66.706 38.406c2.206 1.255 4.171 2.367 5.784 3.272 2.497 1.4 4.199 2.337 4.8 2.629 4.741 2.303 11.563 3.643 17.71 3.643a44.596 44.596 0 0 0 16.332-3.072l182.22-105.53c10.459-8.104 16.612-20.325 17.166-33.564v-201.75z"/></svg>
