<?xml version="1.0" encoding="UTF-8"?>
<svg id="Layer_1" data-name="Layer 1" xmlns="http://www.w3.org/2000/svg" version="1.1" viewBox="0 0 320 320">
  <defs>
    <style>
      .cls-1 {
        fill: #f47226;
      }

      .cls-1, .cls-2 {
        stroke-width: 0px;
      }

      .cls-2 {
        fill: #171717;
      }
    </style>
  </defs>
  <circle class="cls-1" cx="160" cy="160" r="160"/>
  <path class="cls-2" d="M217.2,197v-14.1c8.7-3,14.9-12.2,14.9-23.1s-6.3-20.1-14.9-23.1v-14.1c8.1-2.8,14.2-11.1,14.9-21.2h-9.9v4.3c0,3.3-2,6.2-5,7.7v-2c0-2.9-2.6-5.3-5.7-5.3h-.5c-3.2,0-5.7,2.4-5.7,5.3v2c-3-1.5-5-4.3-5-7.7v-4.3h-9.9c.7,10.1,6.7,18.5,14.9,21.2v14.1c-8.6,2.9-14.9,12.2-14.9,23.1s6.3,20.1,14.9,23.1v14.1c-8.1,2.8-14.2,11.1-14.9,21.2h9.9v-4.3c0-3.3,2-6.2,5-7.7v2c0,2.9,2.6,5.3,5.7,5.3h.5c3.2,0,5.7-2.4,5.7-5.3v-2c3,1.5,5,4.3,5,7.7v4.3h9.9c-.7-10.1-6.7-18.5-14.9-21.2ZM200.2,166v-12.3c0-3.3,2-6.2,5-7.7v2c0,2.9,2.6,5.3,5.7,5.3h.5c3.2,0,5.7-2.4,5.7-5.3v-2c3,1.5,5,4.3,5,7.7v12.3c0,3.3-2,6.2-5,7.7v-2c0-2.9-2.6-5.3-5.7-5.3h-.5c-3.2,0-5.7,2.4-5.7,5.3v2c-2.9-1.5-5-4.3-5-7.7Z"/>
  <path class="cls-2" d="M278,167.3v-15c8.7-3,14.9-12.2,14.9-23.1s-6.3-20.1-14.9-23.1v-4.7h-12v4.7c-8.7,3-14.9,12.2-14.9,23.1s6.3,20.1,14.9,23.1v15c-8.7,3-14.9,12.2-14.9,23.1s6.3,20.1,14.9,23.1v4.7h12v-4.7c8.7-3,14.9-12.2,14.9-23.1s-6.3-20.1-14.9-23.1ZM261,135.4v-12.3c0-3.3,2-6.2,5-7.7v2c0,2.9,2.6,5.3,5.7,5.3h.5c3.2,0,5.7-2.4,5.7-5.3v-2c3,1.5,5,4.3,5,7.7v12.3c0,3.3-2,6.2-5,7.7v-2c0-2.9-2.6-5.3-5.7-5.3h-.5c-3.2,0-5.7,2.4-5.7,5.3v2c-2.9-1.5-5-4.3-5-7.7ZM283,196.6c0,3.3-2,6.2-5,7.7v-2.9c0-2.9-2.6-5.3-5.7-5.3h-.5c-3.2,0-5.7,2.4-5.7,5.3v2.9c-3-1.5-5-4.3-5-7.7v-12.3c0-3.3,2-6.2,5-7.7v1.1c0,2.9,2.6,5.3,5.7,5.3h.5c3.2,0,5.7-2.4,5.7-5.3v-1.1c3,1.5,5,4.3,5,7.7v12.3h0Z"/>
  <path class="cls-2" d="M148.7,148c-.1-.6-.3-1.2-.5-1.7,0-.1,18.7-24.2,1.5-39.1-17.2-14.9-37.3,4.5-37.4,4.6-3.2-.9-6.4-1.5-9.6-1.8h0c-6.6-1-15.7,0-15.7,0-3.2.3-6.4.8-9.5,1.7-.1-.1-20.2-19.5-37.4-4.6-17.2,14.9,1.4,39,1.5,39.1-.2.6-.4,1.1-.5,1.7-1.8,10.3-14.5,13.5-14.5,31.4s13.2,32.7,40.3,32.7h11.1c0,0,4.3,5.7,13.2,6.1,0,0,2,.2,6.7,0,9.4,0,13.9-6,14-6.1h11.1c27,0,40.3-14.4,40.3-32.7,0-17.9-12.6-21.1-14.4-31.4Z"/>
</svg>