<svg xmlns="http://www.w3.org/2000/svg" xml:space="preserve" viewBox="0 0 214.7 214.7"><path d="M212.2 84.9C199.9 27 142.9-10 85 2.4c-20.3 4.3-38.8 14.4-53.5 29-4.9 4.9-9.3 10.2-13.1 15.9a38.8 38.8 0 0 0-3 4.8c-30.6 50.7-14.2 116.7 36.5 147.2 50.7 30.5 116.7 14.2 147.2-36.5 2.4-4 4.5-8.1 6.4-12.3.6-1.3 1.2-2.7 1.7-4.1 7.6-19.5 9.3-40.7 5.1-61.1zm-37.2-49 1.8 1.8c9.3 9.3 16.7 20.4 21.7 32.6.3.8-.1 1.8-.9 2.2-.3.1-.6.2-.9.1-3.1-.5-6.3-.8-9.5-.7-2.4 0-4.5-1.7-5-4.1-1.7-10-4.5-19.8-8.2-29.3l-.6-1.5c-.3-.5-.2-1.1.2-1.5.4-.4 1.1-.1 1.4.4zm10.2 62.9c0-.6.5-1.2 1.1-1.2.4 0 .7.2 1 .5.8 1.1 1.6 2.3 2.3 3.4 1 1.5 1.9 3 2.8 4.5.5.9.4 2.1-.3 2.9-1.1 1.3-2.4 2.6-3.8 3.9l-1.5 1.5c-.4.4-1 .3-1.4-.1-.2-.2-.3-.4-.3-.7.1-1.6.1-3.2.1-4.9.1-3.2.1-6.5 0-9.8zm-135-71.7C66.9 15.2 86.9 8.8 107.3 8.9c5.4 0 10.8.4 16.2 1.3.9.1 1.5 1 1.4 1.9-.1.4-.3.8-.6 1-5.1 4-9.9 10-14.1 17.7-1 1.9-3.2 2.8-5.3 2.2a135 135 0 0 0-40.5-5.3c-4.5.1-8.9.6-13.3 1.4-.6.1-1.2-.3-1.3-.9-.1-.4.1-.8.4-1.1zM36.2 174c-2.1-3.9.6-12.9 14.2-26.7 1.3-1.3 1.3-3.5-.1-4.8-.1-.1-.2-.1-.2-.2l-1.6-1.3c-1.3-1.1-3.3-1-4.5.2l-.5.5c-6.8 7-11.5 13.4-14.2 19.2-.6 1.2-1.9 1.6-3.1 1.1-.4-.2-.7-.4-.9-.8C14.6 145.3 9 126.5 9 107.3c0-6.9.7-13.8 2.1-20.5.1-.5.7-.9 1.2-.8.3.1.6.3.7.7 2.3 7.4 5.7 14.3 9.9 20.8 6.7 10.1 14.8 19.2 24 27 3.3 2.9 6.8 5.6 10.4 8.3 7.5 5.5 15.5 10.4 23.8 14.7 3.8 2 7.4 3.8 11.2 5.5 2.1.9 4.5 1 6.6.2 1.8-.7 3.6-1.4 5.4-2.2 2-.8 3-2.9 2.5-5-.1-.3-.1-.5-.1-.6-3.1-13.5-4.7-27.3-4.8-41.2v-7c.1-2.5.1-5 .3-7.5.9-17.7 3.9-34.4 8.7-48.4.4-1.3-.2-2.7-1.5-3.1-1.3-.4-2.5-.8-3.8-1.2-1.3-.4-2.6.3-3.1 1.6-5.2 15.2-8.4 33.3-9.2 52.4-.1 2.4-1.4 4.6-3.5 5.9-10.7 6.3-21 13.3-30.7 21-1.9 1.5-4.5 1.4-6.4-.1-8.6-7.3-16.1-15.7-22.3-25.1-11.2-17.3-13.9-33.6-7.5-45.8l.1-.1c.8-1.4 1.7-2.7 2.6-4 7.4-9.7 21-15.4 39.2-16 1.1 0 2.3-.1 3.5-.1 11.9.1 23.8 1.9 35.2 5.3l.8.2.6.2c2.8.8 5.6 1.8 8.4 2.8l.2.1 2.2.8.7.3.7.2c6 2.3 12 5 17.7 8 11 5.7 21.3 12.5 30.7 20.4-17.2 4-37.2 11.6-57.4 21.9-.9.5-1.5 1.4-1.6 2.4-.1 1.2-.2 3.8-.2 5.8 0 .9.7 1.7 1.6 1.7.3 0 .5-.1.8-.2 19.9-10.5 39.8-18.3 56.9-22.4 3.2-.8 5.3-3.8 4.8-7.1-.3-2.3-.7-4.5-1.1-6.7-.5-2.8-2-5.2-4.2-6.9-8.3-6.3-17-11.8-26.3-16.6-6.3-3.3-12.7-6.2-19.3-8.7-1.3-.5-1.9-1.9-1.4-3.1 0-.1.1-.2.2-.3 6.7-11.9 14.6-18.6 22.3-18.6h.2c9.1.2 18.2 9.7 24.9 26 3.6 9.1 6.3 18.6 7.9 28.2.8 4.4 1.4 9 1.9 13.7l-.1.1.2.2c.8 8.1 1.1 16.3.9 24.5-.1 5.3-.4 10.5-.8 15.6-13.7 10.8-28.3 20.4-43.8 28.4-5.4 2.9-10.9 5.6-16.3 8l-.2.1-1.2.6c-4.5 2-8.9 3.9-13.2 5.6l-.7.3-.9.4-2.2.8-.6.2c-.9.3-1.8.6-2.6 1l-.3.1c-8.6 3.1-17.4 5.6-26.3 7.4-19.9 3.5-29.1.6-31.2-3.4zm27-38.1c9.5-7.6 19.5-14.6 30-20.8.2 13.5 1.7 27 4.6 40.3-4.1-1.8-8.2-3.7-12.3-5.8-7.8-4.1-15.3-8.6-22.3-13.7zm56.9 68.9c-4.2.5-8.4.8-12.7.8-18.8.1-37.3-5.3-53.1-15.5-.6-.4-.8-1.2-.4-1.8.2-.4.6-.6 1.1-.6h.7c4.4-.3 8.8-.9 13.1-1.8 11.3-2.3 22.3-5.6 33-9.7 1.1-.4 2.2.1 2.6 1.2 4.6 11.1 10.1 19.4 16.4 24.8.7.6.7 1.6.1 2.2-.2.1-.5.3-.8.4zm41.5-26.3c-7 13.8-15.7 21.6-24 21.4-9.1-.2-18.2-9.6-24.9-26-.4-1 .1-2.2 1.1-2.7l.2-.1c.4-.2.9-.2 1.4-.1 11.9 3.4 24.2 5.3 36.6 5.4 1.3 0 2.5 0 3.8-.1 1.5-.1 2.9-.1 4.3-.2.9 0 1.7.7 1.7 1.6 0 .3-.1.6-.2.8zm3-11.9c-3.1.4-6.2.7-9.2.8-8.3.2-16.6-.4-24.8-2-.6-.1-1-.7-.9-1.3.1-.3.3-.6.6-.8 1.9-.9 3.7-1.9 5.6-2.9 12.5-6.6 24.5-14 36-22.3.5-.4 1.2-.3 1.5.2.2.2.3.6.2.9-1.4 8.5-3.4 16.8-6.1 24.9-.4 1.4-1.5 2.3-2.9 2.5zm14.5 7.8c-.7.8-1.5 1.6-2.3 2.3-1.3 1.3-2.7 2.6-4.1 3.9-.5.4-1.2.3-1.6-.1-.3-.3-.3-.8-.2-1.2.1-.3.3-.6.4-.9.6-1.3 1.2-2.7 1.7-4 .1-.3.4-.6.7-.6 1.4-.3 2.8-.7 4.1-1.2.6-.2 1.2.1 1.4.7.3.4.2.8-.1 1.1zm19.8-31.2-1.5 3.6-.2.5c-3.2 6.2-8.7 11.2-16 14.6-1.1.5-2.3 0-2.8-1-.2-.5-.3-1-.1-1.4 2.5-9.1 4.3-18.4 5.4-27.8.2-1.8 1.1-3.5 2.5-4.7 3-2.6 5.8-5.2 8.4-7.7.9-.9 2.4-.9 3.3 0 .3.3.5.6.6 1 2.6 8.2 2.7 16.1.4 22.9zm2-46c-.5 1-1.8 1.3-2.7.8-.3-.2-.5-.4-.7-.7-.1-.2-.2-.4-.4-.6-3-4.6-6.4-9.1-10.1-13.2-.6-.7-.5-1.7.1-2.3.3-.3.7-.4 1.1-.4 8.8 0 13.4 2.2 14.8 4.8 1.2 2.2.9 6.1-2.1 11.6zm4.8 13c0 .3-.3.6-.6.6-.2 0-.5-.2-.6-.4l-.3-.8c-.2-.5-.2-1 .1-1.5.1-.1.2-.3.4-.5.4-.6 1-.5 1 .1z" style="fill:#7b2bf9"/></svg>
