<svg xmlns="http://www.w3.org/2000/svg" xmlns:xlink="http://www.w3.org/1999/xlink" version="1.1" id="Layer_1" x="0px" y="0px" viewBox="0 0 214.7 214.7" xml:space="preserve">
<style type="text/css">
	.st0{fill:#7b2bf9;}
</style>
<g>
	<path class="st0" d="M 212.2,84.9 C 199.9,27 142.9,-10 85,2.4 64.7,6.7 46.2,16.8 31.5,31.4 c -4.9,4.9 -9.3,10.2 -13.1,15.9 -1.1,1.5 -2.1,3.1 -3,4.8 -30.6,50.7 -14.2,116.7 36.5,147.2 50.7,30.5 116.7,14.2 147.2,-36.5 2.4,-4 4.5,-8.1 6.4,-12.3 0.6,-1.3 1.2,-2.7 1.7,-4.1 7.6,-19.5 9.3,-40.7 5.1,-61.1 z m -37.2,-49 1.8,1.8 c 9.3,9.3 16.7,20.4 21.7,32.6 0.3,0.8 -0.1,1.8 -0.9,2.2 -0.3,0.1 -0.6,0.2 -0.9,0.1 -3.1,-0.5 -6.3,-0.8 -9.5,-0.7 -2.4,0 -4.5,-1.7 -5,-4.1 C 180.5,57.8 177.7,48 174,38.5 L 173.4,37 c -0.3,-0.5 -0.2,-1.1 0.2,-1.5 0.4,-0.4 1.1,-0.1 1.4,0.4 z m 10.2,62.9 c 0,-0.6 0.5,-1.2 1.1,-1.2 0.4,0 0.7,0.2 1,0.5 0.8,1.1 1.6,2.3 2.3,3.4 1,1.5 1.9,3 2.8,4.5 0.5,0.9 0.4,2.1 -0.3,2.9 -1.1,1.3 -2.4,2.6 -3.8,3.9 l -1.5,1.5 c -0.4,0.4 -1,0.3 -1.4,-0.1 -0.2,-0.2 -0.3,-0.4 -0.3,-0.7 0.1,-1.6 0.1,-3.2 0.1,-4.9 0.1,-3.2 0.1,-6.5 0,-9.8 z M 50.2,27.1 C 66.9,15.2 86.9,8.8 107.3,8.9 c 5.4,0 10.8,0.4 16.2,1.3 0.9,0.1 1.5,1 1.4,1.9 -0.1,0.4 -0.3,0.8 -0.6,1 -5.1,4 -9.9,10 -14.1,17.7 -1,1.9 -3.2,2.8 -5.3,2.2 -13.1,-3.8 -26.8,-5.6 -40.5,-5.3 -4.5,0.1 -8.9,0.6 -13.3,1.4 -0.6,0.1 -1.2,-0.3 -1.3,-0.9 -0.1,-0.4 0.1,-0.8 0.4,-1.1 z M 36.2,174 c -2.1,-3.9 0.6,-12.9 14.2,-26.7 v 0 c 1.3,-1.3 1.3,-3.5 -0.1,-4.8 -0.1,-0.1 -0.2,-0.1 -0.2,-0.2 L 48.5,141 c -1.3,-1.1 -3.3,-1 -4.5,0.2 l -0.5,0.5 c -6.8,7 -11.5,13.4 -14.2,19.2 -0.6,1.2 -1.9,1.6 -3.1,1.1 -0.4,-0.2 -0.7,-0.4 -0.9,-0.8 C 14.6,145.3 9,126.5 9,107.3 c 0,-6.9 0.7,-13.8 2.1,-20.5 0.1,-0.5 0.7,-0.9 1.2,-0.8 0.3,0.1 0.6,0.3 0.7,0.7 2.3,7.4 5.7,14.3 9.9,20.8 6.7,10.1 14.8,19.2 24,27 v 0 c 3.3,2.9 6.8,5.6 10.4,8.3 7.5,5.5 15.5,10.4 23.8,14.7 3.8,2 7.4,3.8 11.2,5.5 2.1,0.9 4.5,1 6.6,0.2 1.8,-0.7 3.6,-1.4 5.4,-2.2 2,-0.8 3,-2.9 2.5,-5 -0.1,-0.3 -0.1,-0.5 -0.1,-0.6 -3.1,-13.5 -4.7,-27.3 -4.8,-41.2 v 0 -0.5 -2.4 -1 -0.3 0 -2.8 c 0.1,-2.5 0.1,-5 0.3,-7.5 v 0 c 0.9,-17.7 3.9,-34.4 8.7,-48.4 0.4,-1.3 -0.2,-2.7 -1.5,-3.1 v 0 c -1.3,-0.4 -2.5,-0.8 -3.8,-1.2 -1.3,-0.4 -2.6,0.3 -3.1,1.6 -5.2,15.2 -8.4,33.3 -9.2,52.4 -0.1,2.4 -1.4,4.6 -3.5,5.9 -10.7,6.3 -21,13.3 -30.7,21 -1.9,1.5 -4.5,1.4 -6.4,-0.1 C 44.1,120.5 36.6,112.1 30.4,102.7 19.2,85.4 16.5,69.1 22.9,56.9 L 23,56.8 c 0.8,-1.4 1.7,-2.7 2.6,-4 7.4,-9.7 21,-15.4 39.2,-16 1.1,0 2.3,-0.1 3.5,-0.1 11.9,0.1 23.8,1.9 35.2,5.3 v 0 l 0.8,0.2 0.6,0.2 v 0 c 2.8,0.8 5.6,1.8 8.4,2.8 v 0 l 0.2,0.1 2.2,0.8 0.7,0.3 0.7,0.2 v 0 c 6,2.3 12,5 17.7,8 11,5.7 21.3,12.5 30.7,20.4 -17.2,4 -37.2,11.6 -57.4,21.9 -0.9,0.5 -1.5,1.4 -1.6,2.4 -0.1,1.2 -0.2,3.8 -0.2,5.8 0,0.9 0.7,1.7 1.6,1.7 0.3,0 0.5,-0.1 0.8,-0.2 v 0 c 19.9,-10.5 39.8,-18.3 56.9,-22.4 3.2,-0.8 5.3,-3.8 4.8,-7.1 -0.3,-2.3 -0.7,-4.5 -1.1,-6.7 -0.5,-2.8 -2,-5.2 -4.2,-6.9 -8.3,-6.3 -17,-11.8 -26.3,-16.6 -6.3,-3.3 -12.7,-6.2 -19.3,-8.7 -1.3,-0.5 -1.9,-1.9 -1.4,-3.1 0,-0.1 0.1,-0.2 0.2,-0.3 6.7,-11.9 14.6,-18.6 22.3,-18.6 h 0.2 c 9.1,0.2 18.2,9.7 24.9,26 3.6,9.1 6.3,18.6 7.9,28.2 v 0 c 0.8,4.4 1.4,9 1.9,13.7 l -0.1,0.1 0.2,0.2 c 0.8,8.1 1.1,16.3 0.9,24.5 -0.1,5.3 -0.4,10.5 -0.8,15.6 -13.7,10.8 -28.3,20.4 -43.8,28.4 -5.4,2.9 -10.9,5.6 -16.3,8 l -0.2,0.1 -1.2,0.6 v 0 c -4.5,2 -8.9,3.9 -13.2,5.6 v 0 l -0.7,0.3 -0.9,0.4 -2.2,0.8 -0.6,0.2 c -0.9,0.3 -1.8,0.6 -2.6,1 l -0.3,0.1 v 0 c -8.6,3.1 -17.4,5.6 -26.3,7.4 -19.9,3.5 -29.1,0.6 -31.2,-3.4 z m 27,-38.1 c 9.5,-7.6 19.5,-14.6 30,-20.8 0.2,13.5 1.7,27 4.6,40.3 -4.1,-1.8 -8.2,-3.7 -12.3,-5.8 -7.8,-4.1 -15.3,-8.6 -22.3,-13.7 z m 56.9,68.9 c -4.2,0.5 -8.4,0.8 -12.7,0.8 -18.8,0.1 -37.3,-5.3 -53.1,-15.5 -0.6,-0.4 -0.8,-1.2 -0.4,-1.8 0.2,-0.4 0.6,-0.6 1.1,-0.6 h 0.7 c 4.4,-0.3 8.8,-0.9 13.1,-1.8 11.3,-2.3 22.3,-5.6 33,-9.7 1.1,-0.4 2.2,0.1 2.6,1.2 v 0 c 4.6,11.1 10.1,19.4 16.4,24.8 0.7,0.6 0.7,1.6 0.1,2.2 -0.2,0.1 -0.5,0.3 -0.8,0.4 z m 41.5,-26.3 c -7,13.8 -15.7,21.6 -24,21.4 -9.1,-0.2 -18.2,-9.6 -24.9,-26 v 0 c -0.4,-1 0.1,-2.2 1.1,-2.7 l 0.2,-0.1 c 0.4,-0.2 0.9,-0.2 1.4,-0.1 11.9,3.4 24.2,5.3 36.6,5.4 1.3,0 2.5,0 3.8,-0.1 1.5,-0.1 2.9,-0.1 4.3,-0.2 0.9,0 1.7,0.7 1.7,1.6 0,0.3 -0.1,0.6 -0.2,0.8 z m 3,-11.9 c -3.1,0.4 -6.2,0.7 -9.2,0.8 -8.3,0.2 -16.6,-0.4 -24.8,-2 -0.6,-0.1 -1,-0.7 -0.9,-1.3 0.1,-0.3 0.3,-0.6 0.6,-0.8 1.9,-0.9 3.7,-1.9 5.6,-2.9 12.5,-6.6 24.5,-14 36,-22.3 0.5,-0.4 1.2,-0.3 1.5,0.2 0.2,0.2 0.3,0.6 0.2,0.9 -1.4,8.5 -3.4,16.8 -6.1,24.9 -0.4,1.4 -1.5,2.3 -2.9,2.5 z m 14.5,7.8 c -0.7,0.8 -1.5,1.6 -2.3,2.3 -1.3,1.3 -2.7,2.6 -4.1,3.9 -0.5,0.4 -1.2,0.3 -1.6,-0.1 -0.3,-0.3 -0.3,-0.8 -0.2,-1.2 0.1,-0.3 0.3,-0.6 0.4,-0.9 0.6,-1.3 1.2,-2.7 1.7,-4 0.1,-0.3 0.4,-0.6 0.7,-0.6 1.4,-0.3 2.8,-0.7 4.1,-1.2 0.6,-0.2 1.2,0.1 1.4,0.7 0.3,0.4 0.2,0.8 -0.1,1.1 z m 19.8,-31.2 -1.5,3.6 -0.2,0.5 c -3.2,6.2 -8.7,11.2 -16,14.6 -1.1,0.5 -2.3,0 -2.8,-1 -0.2,-0.5 -0.3,-1 -0.1,-1.4 2.5,-9.1 4.3,-18.4 5.4,-27.8 0.2,-1.8 1.1,-3.5 2.5,-4.7 3,-2.6 5.8,-5.2 8.4,-7.7 v 0 c 0.9,-0.9 2.4,-0.9 3.3,0 0.3,0.3 0.5,0.6 0.6,1 2.6,8.2 2.7,16.1 0.4,22.9 z m 2,-46 c -0.5,1 -1.8,1.3 -2.7,0.8 -0.3,-0.2 -0.5,-0.4 -0.7,-0.7 -0.1,-0.2 -0.2,-0.4 -0.4,-0.6 -3,-4.6 -6.4,-9.1 -10.1,-13.2 -0.6,-0.7 -0.5,-1.7 0.1,-2.3 0.3,-0.3 0.7,-0.4 1.1,-0.4 v 0 c 8.8,0 13.4,2.2 14.8,4.8 1.2,2.2 0.9,6.1 -2.1,11.6 z m 4.8,13 c 0,0.3 -0.3,0.6 -0.6,0.6 -0.2,0 -0.5,-0.2 -0.6,-0.4 l -0.3,-0.8 c -0.2,-0.5 -0.2,-1 0.1,-1.5 0.1,-0.1 0.2,-0.3 0.4,-0.5 0.4,-0.6 1,-0.5 1,0.1 z"/>
</g>
</svg>
