<svg xmlns="http://www.w3.org/2000/svg" fill="none" viewBox="0 0 284 310"><path fill="url(#a)" d="m155.499 128.144 3.972 2.294.462-.807c12.016-20.96 27.17-36.773 45.04-47 17.641-10.095 38.442-15.049 61.849-14.708l.941.013V63.34l-.943.016c-23.108.4-43.713-4.464-61.284-14.452-17.981-10.222-33.329-26.128-45.615-47.276l-.463-.799-3.952 2.282.461.802c12.172 21.19 18.275 42.416 18.142 63.091-.13 20.216-6.228 40.515-18.125 60.333l-.485.808Z"/><path fill="url(#b)" d="M265.26 153.586c.136-20.211 6.234-40.497 18.126-60.299l.485-.809-3.981-2.298-.458.82c-11.41 20.432-26.1 35.98-43.663 46.209-17.791 10.364-39.055 15.597-63.223 15.507l-.929-.004v4.586l.942-.016c23.113-.394 43.74 4.476 61.313 14.471 17.972 10.222 33.303 26.122 45.568 47.258l.463.799 3.952-2.282-.46-.801c-12.172-21.213-18.273-42.458-18.135-63.141Z"/><path fill="url(#c)" d="M202.59 226.269c-17.443-10.221-31.973-25.651-43.188-45.864l-.457-.824-3.972 2.294.467.803c12.145 20.887 18.262 41.917 18.183 62.506-.077 20.324-6.196 40.82-18.186 60.917l-.481.807 3.98 2.299.457-.824c11.203-20.2 25.724-35.625 43.159-45.848 17.843-10.462 39.29-15.799 63.748-15.864l.924-.003v-4.564l-.924-.002c-24.436-.053-45.871-5.381-63.71-15.833Z"/><path fill="url(#d)" d="M110.378 245.183c-.079-20.589 6.039-41.619 18.183-62.505l.467-.804-3.972-2.293-.457.824c-11.215 20.212-25.746 35.643-43.188 45.863-17.838 10.453-39.274 15.78-63.71 15.833l-.924.002v4.563l.923.003c24.458.065 45.906 5.404 63.75 15.866 17.434 10.222 31.955 25.647 43.157 45.847l.457.824 3.982-2.299-.481-.807c-11.99-20.097-18.109-40.592-18.187-60.917Z"/><path fill="url(#e)" d="M50.128 171.753c17.573-9.995 38.215-14.866 61.313-14.47l.941.016.002-4.586-.93.003c-24.176.054-45.433-5.144-63.224-15.506-17.562-10.23-32.253-25.777-43.662-46.209l-.458-.82-3.982 2.298.486.808c11.892 19.802 17.99 40.09 18.126 60.3.138 20.684-5.963 41.927-18.135 63.14l-.46.802 3.951 2.282.465-.8c12.265-21.136 27.595-37.036 45.567-47.258Z"/><path fill="url(#f)" d="M17.912 68.81c23.407-.348 44.21 4.614 61.85 14.71 17.87 10.225 33.023 26.038 45.039 46.999l.461.806 3.973-2.294-.485-.808c-11.897-19.818-17.995-40.117-18.126-60.333-.132-20.675 5.971-41.902 18.143-63.09l.461-.803-3.953-2.282-.464.8c-12.285 21.147-27.63 37.053-45.613 47.275-17.57 9.988-38.186 14.863-61.284 14.452l-.943-.016.002 4.598.94-.014Z"/><defs><linearGradient id="a" x1="143.064" x2="222.865" y1="-14.63" y2="99.537" gradientUnits="userSpaceOnUse"><stop stop-color="#8DF496"/><stop offset=".5" stop-color="#6FC177"/><stop offset="1" stop-color="#528E57"/></linearGradient><linearGradient id="b" x1="214.278" x2="268.303" y1="122.535" y2="196.907" gradientUnits="userSpaceOnUse"><stop stop-color="#8DF496"/><stop offset=".5" stop-color="#6FC177"/><stop offset="1" stop-color="#528E57"/></linearGradient><linearGradient id="c" x1="169.543" x2="224.769" y1="204.294" y2="286.387" gradientUnits="userSpaceOnUse"><stop stop-color="#8DF496"/><stop offset=".5" stop-color="#6FC177"/><stop offset="1" stop-color="#528E57"/></linearGradient><linearGradient id="d" x1="71.952" x2="117.579" y1="213.579" y2="290.542" gradientUnits="userSpaceOnUse"><stop stop-color="#8DF496"/><stop offset=".5" stop-color="#6FC177"/><stop offset="1" stop-color="#528E57"/></linearGradient><linearGradient id="e" x1="87.181" x2="8.624" y1="217.467" y2="103.047" gradientUnits="userSpaceOnUse"><stop stop-color="#8DF496"/><stop offset=".5" stop-color="#6FC177"/><stop offset="1" stop-color="#528E57"/></linearGradient><linearGradient id="f" x1="118.392" x2="70.863" y1="114.764" y2="36.854" gradientUnits="userSpaceOnUse"><stop stop-color="#8DF496"/><stop offset=".5" stop-color="#6FC177" stop-opacity=".97"/><stop offset="1" stop-color="#528E57" stop-opacity=".94"/></linearGradient></defs></svg>
