<svg xmlns="http://www.w3.org/2000/svg" xml:space="preserve" viewBox="0 0 144 144"><path fill="#252120" d="M88 145H1.038V1.1h143.8V145H88M33.561 93.883c9.724.142 15.444-6.678 20.998-12.418l11.634 10.418c-3.003 2.158-6.352 3.497-7.971 5.97-2.645 4.039-5.25 8.658-5.923 13.315-1.31 9.08 5.15 18.208 13.523 21.053 9.2 3.125 18.81-.146 24.132-8.212 5.082-7.704 4.346-18.601-1.802-25.522-2.3-2.589-4.755-5.04-7.156-7.57l10.011-10.04c2.09 2.27 4.021 4.57 6.16 6.657 8.588 8.375 20.837 8.39 29.052.11 8.177-8.24 8.214-21.405.083-29.668-8.157-8.29-20.505-8.39-29.031-.096-2.214 2.152-4.051 4.691-5.749 6.685L80.058 54.257c2.708-2.313 5.16-4.058 7.19-6.202 8.236-8.695 8.062-21.97-.253-30.11-8.016-7.849-20.31-7.921-28.35-.168-8.6 8.294-8.829 21.013-.518 30.016 2.097 2.272 4.26 4.484 5.733 6.031l-9.125 10.848c-2.71-2.867-4.853-5.438-7.304-7.671-8.034-7.323-20.338-7.012-28.01.7-6.086 6.117-7.808 13.583-5.2 21.635 2.837 8.763 9.39 13.424 19.34 14.547z"/><path fill="#ECDDD0" d="M33.14 93.871c-9.529-1.11-16.082-5.772-18.92-14.535-2.607-8.052-.885-15.518 5.201-21.636 7.672-7.71 19.976-8.022 28.01-.7 2.45 2.234 4.594 4.805 7.304 7.672l9.125-10.848c-1.474-1.547-3.636-3.76-5.733-6.031-8.31-9.003-8.082-21.722.518-30.016 8.04-7.753 20.334-7.68 28.35.167 8.315 8.14 8.489 21.416.253 30.111-2.03 2.144-4.482 3.89-7.19 6.202l11.464 10.308c1.698-1.994 3.535-4.533 5.749-6.685 8.526-8.293 20.874-8.193 29.031.096 8.131 8.263 8.094 21.428-.083 29.669-8.215 8.278-20.464 8.264-29.051-.111-2.14-2.087-4.07-4.386-6.16-6.656-3.512 3.52-6.634 6.652-10.012 10.04 2.4 2.53 4.856 4.98 7.156 7.569 6.148 6.92 6.884 17.818 1.802 25.522-5.322 8.066-14.932 11.337-24.132 8.212-8.373-2.845-14.834-11.974-13.523-21.053.673-4.657 3.278-9.276 5.923-13.315 1.619-2.473 4.968-3.812 7.971-5.97L54.56 81.465c-5.554 5.74-11.274 12.56-21.42 12.406m71.552-28.974-8.857 8.742c2.422 1.835 4.56 3.43 6.67 5.062.787.609 1.454 1.383 2.27 1.943 3.701 2.54 9.718 2.22 13.008-.761 3.532-3.199 4.154-7.17 2.267-11.372-2.272-5.06-7.512-6.4-15.358-3.614m-30.766 35.226c-2.81 2.143-6.014 3.932-8.339 6.513-3.448 3.827-2.677 9.693 1.084 12.998 3.596 3.16 8.714 3.095 12.288-.155 3.79-3.447 4.304-8.944 1.01-13.04-1.662-2.065-3.675-3.848-6.043-6.316M33.59 63.276c-5.197.389-8.307 3.324-9.045 8.298-.643 4.329 1.304 7.767 5.31 9.72 4.554 2.22 8.293.665 11.525-2.82 1.785-1.924 3.624-3.798 6.377-6.675-4.768-3.03-9.085-5.774-14.167-8.523m31.978-36.207c-4.1 7.012-2.717 10.683 7.732 19.385 1.826-2.004 3.722-4.065 5.595-6.147 4.122-4.582 4.323-9.868.542-13.84-3.589-3.77-8.304-3.768-13.87.602m3.957 39.03c-2.342 1.83-4.683 3.662-7.554 5.907l10.741 9.662 9.838-8.739-10.188-10.518c-.953 1.322-1.634 2.268-2.837 3.687z"/><path fill="#2B2725" d="M104.991 64.662c7.546-2.551 12.786-1.21 15.058 3.85 1.887 4.2 1.265 8.172-2.267 11.37-3.29 2.981-9.307 3.302-13.008.762-.816-.56-1.483-1.334-2.27-1.943-2.11-1.632-4.248-3.227-6.67-5.062 3.708-3.66 6.282-6.201 9.157-8.977z"/><path fill="#2A2624" d="M74.182 100.401c2.11 2.19 4.124 3.973 5.786 6.039 3.294 4.095 2.78 9.592-1.01 13.04-3.574 3.249-8.692 3.313-12.288.154-3.76-3.305-4.532-9.17-1.084-12.998 2.325-2.58 5.528-4.37 8.596-6.235z"/><path fill="#2A2625" d="M33.973 63.279c4.7 2.746 9.017 5.49 13.785 8.52-2.753 2.877-4.592 4.75-6.377 6.675-3.232 3.485-6.97 5.04-11.525 2.82-4.006-1.953-5.953-5.391-5.31-9.72.738-4.974 3.848-7.91 9.427-8.295z"/><path fill="#2A2524" d="M65.818 26.77c5.316-4.071 10.031-4.073 13.62-.303 3.781 3.972 3.58 9.258-.542 13.84-1.873 2.082-3.77 4.143-5.595 6.147-10.45-8.702-11.832-12.373-7.483-19.684z"/><path fill="#2C2726" d="M69.785 65.862c.943-1.183 1.624-2.13 2.577-3.45L82.55 72.928l-9.838 8.74-10.741-9.663c2.87-2.245 5.212-4.076 7.814-6.144z"/></svg>
