<svg xmlns="http://www.w3.org/2000/svg" width="53" height="75" fill="none"><g clip-path="url(#a)"><path fill="#BFF009" d="M27.358 18.676c0-2.97 2.43-5.389 5.414-5.389h9.687V.177H32.772c-10.263 0-18.584 8.283-18.584 18.5 0 2.665.57 5.199 1.59 7.486-7.971 3.354-13.264 10.48-14.496 19.498-1.44 9.9 2.545 20.58 11.224 25.74 7.746 4.856 19.857 4.535 26.4-2.201v4.472h13.481V24.065h-19.61c-2.982 0-5.419-2.42-5.419-5.389Zm11.847 18.506v12.452c0 6.88-5.603 12.451-12.509 12.451-6.905 0-12.508-5.578-12.508-12.451 0-6.874 5.603-12.452 12.508-12.452h12.509Z"/></g><defs><clipPath id="a"><path fill="#fff" d="M.898 0H52.47v74.714H.898z"/></clipPath></defs></svg>