<svg xmlns="http://www.w3.org/2000/svg" xml:space="preserve" style="enable-background:new 0 0 512 512" viewBox="0 0 512 512"><path d="m254.8 288.1 160 159.7c-87.9 75.2-225.9 78.4-319.7-1.2 53.4-52.9 106.6-105.7 159.7-158.5z" style="fill:#bd072f"/><path d="M291.5 255.9c35.2-36.2 70.9-73.2 107-109.9 15-15.3 30.5-29.9 46.1-44.6 1.2-1.1 5.2-1.3 5.9-.4 27.4 36 47.8 75.3 53.2 120.8 8.2 69.4-7.7 132.6-51.3 188.1-1.2 1.5-2.3 3.2-2.9 4.1-53.2-53.3-106.4-106.4-158-158.1z" style="fill:#fa4212"/><path d="M139.1 337.8c5.9-15.6 11.9-31.2 17.8-46.8 24.5-64.5 49-129 73.5-193.4 7.7-20 16.4-39.7 24.3-59.7 3-7.7 5.3-15.7 7.7-23.6 1.8-5.9 5.4-8.1 11.6-7.5 24.4 2.4 48.4 6.2 70.9 16.5 13 6 26.3 11.4 38.7 18.5 10.1 5.8 18.9 13.7 30.1 22L140.7 339l-1.6-1.2z" style="fill:#ff8000"/><path d="M200.2 47.7c-45.9 121.5-91.7 242.9-138.5 366.9-8.8-13.4-17-24.7-23.9-36.7C22 350.4 11.9 320 7.9 288.5c-1.9-15-1.5-30.4-1.6-45.6 0-2.4 2.2-5.3 4.1-7.2C69.5 176.4 128.8 117.3 188 58.2c3.6-3.6 7.1-7.4 10.7-11.2l1.5.7z" style="fill:#b70c02"/></svg>
