<svg xmlns="http://www.w3.org/2000/svg" width="80" height="80"><g fill="#E53935" fill-rule="nonzero"><path d="M40 0c22.091 0 40 17.909 40 40S62.091 80 40 80 0 62.091 0 40 17.909 0 40 0Zm0 3.733C19.97 3.733 3.733 19.97 3.733 40 3.733 60.03 19.97 76.267 40 76.267c20.03 0 36.267-16.237 36.267-36.267C76.267 19.97 60.03 3.733 40 3.733Z"/><path d="M63.528 25.287v-3.391H52.786c-.576-2.192-1.153-4.122-1.782-5.896l-3.615.626a61.122 61.122 0 0 1 1.834 5.27H37.852v3.391h25.676Zm-27.51 25.2V28.835h-5.293c1.1-1.618 2.2-3.6 3.301-6V20.33H25.38c.472-1.043.89-2.087 1.31-3.182l-3.354-1.044C21.764 21.217 19.301 25.34 16 28.522l.786 3.704c.681-.626 1.362-1.252 1.991-1.93v20.191h17.24Zm-8.909-21.652h-7.022a43.064 43.064 0 0 0 3.826-5.53h6.602c-1.153 2.086-2.253 3.965-3.406 5.53ZM48.7 64c2.62 0 3.982-1.46 3.982-4.33V44.8h8.332V29.983H40.63V44.8h8.384v13.983c0 1.304-.524 1.982-1.572 1.982-1.205 0-2.463-.104-3.72-.26L44.454 64H48.7ZM25.904 38.122h-3.878v-6.209h3.878v6.209Zm6.865 0h-3.826v-6.209h3.826v6.209Zm24.68 3.391H44.193v-8.191H57.45v8.191Zm-24.68 5.844h-3.826v-6.21h3.826v6.21Zm-6.865 0h-3.878v-6.21h3.878v6.21ZM61.223 61.6 64 59.67c-1.415-3.34-3.406-7.2-6.026-11.635l-2.777 1.67c2.515 4.33 4.558 8.295 6.026 11.895Zm-21.957.887c2.306-3.6 4.297-7.878 5.974-12.783l-3.04-1.46c-1.624 4.695-3.562 8.765-5.763 12.208l2.83 2.035Zm-4.349-3.548 2.568-.626c-.734-2.504-1.468-4.696-2.306-6.574l-2.463.73a62.595 62.595 0 0 1 2.201 6.47Zm-5.555 3.026 2.725-.313c-.314-3.965-.89-7.095-1.729-9.391l-2.62.313c.838 2.191 1.362 5.322 1.624 9.391Zm-10.008 1.409c1.1-3.078 1.781-6.574 2.096-10.54l-2.83-.364c-.262 3.756-.996 7.095-2.148 10.017l2.882.887Zm4.401-.626 2.725-.313c-.104-4.122-.366-7.409-.733-9.809l-2.516.313c.262 2.296.42 5.583.524 9.809Z"/></g></svg>
