<svg width="400" height="222" viewBox="0 0 400 222" fill="none" xmlns="http://www.w3.org/2000/svg">
<path d="M114.94 142.08L146.44 110.58V110.44L177.79 141.94C186.85 151 197.93 155.03 208.86 155.03C231.73 155.03 253.73 137.2 253.73 110.44L285.08 141.94C294.14 151 305.22 155.03 316.15 155.03C339.02 155.03 361.02 137.2 361.02 110.44H334.12L302.77 79.09C293.71 70.03 282.49 66 271.56 66C248.69 66 226.83 83.69 226.83 110.44L195.48 79.09C186.42 70.03 175.2 66 164.27 66C141.4 66 119.54 83.69 119.54 110.44L39 110.58C39 137.48 61.29 154.88 84.16 154.88C95.09 154.88 106.17 150.85 114.94 142.08Z" fill="#FF004D"/>
</svg>
