<svg xmlns="http://www.w3.org/2000/svg" width="136" height="81" fill="none"><path fill="#EF61B4" d="M93.51 53.16c1.27-4.557-1.769-9.186-6.79-10.34-5.02-1.153-10.12 1.607-11.39 6.164-1.271 4.557 1.77 9.185 6.79 10.338 5.02 1.155 10.12-1.606 11.39-6.162Z"/><path fill="#EF61B4" d="M132.191 80.048c-1.11.61-2.221.814-3.332.814-2.332 0-4.664-1.12-5.886-3.154L85.658 18.41 48.343 77.708c-1.888 2.95-5.997 3.967-9.218 2.238-3.22-1.729-4.331-5.492-2.443-8.442L60.004 34.48 49.898 18.41 12.582 77.708c-1.221 2.035-3.553 3.154-5.886 3.154-1.11 0-2.332-.306-3.331-.814C.144 78.318-.967 74.555.92 71.606L44.123 3.05C45.344 1.12 47.566 0 50.009 0s4.664 1.22 5.886 3.051L68 22.173 80.105 3.051C81.327 1.12 83.548 0 85.991 0c2.444 0 4.665 1.22 5.886 3.051l43.202 68.555c1.888 2.95.777 6.713-2.444 8.442h-.444Z"/></svg>
