<svg xmlns="http://www.w3.org/2000/svg" width="200" height="200"><path fill="none" d="M0 0h200v200H0z" data-name="Rectangle 37"/><path fill="#53cbc8" d="M118.683 16a61.3 61.3 0 0 0-61.276 61.313v.228a3.016 3.016 0 0 0 3.017 2.845h116.517a3.015 3.015 0 0 0 3.016-2.845l.005-.1v-.128A61.3 61.3 0 0 0 118.683 16Z" data-name="Path 185"/><path fill="#e1147b" d="M16.837 145.77a3.729 3.729 0 1 1-3.73-3.732 3.73 3.73 0 0 1 3.73 3.732Z" data-name="Path 186"/><path fill="#e1147b" d="M172.888 125.126H47.865a3.677 3.677 0 0 0-3.231 5.423l.062.116a3.668 3.668 0 0 0 3.232 1.924h124.9a3.669 3.669 0 0 0 3.232-1.924l.062-.116a3.678 3.678 0 0 0-3.234-5.423Z" data-name="Path 187"/><path fill="#e1147b" d="M189.5 91.3H47.862a3.681 3.681 0 0 0-3.666 3.887c0 .039 0 .078.006.117a3.665 3.665 0 0 0 3.667 3.459H189.5a3.666 3.666 0 0 0 3.667-3.459c0-.039 0-.078.006-.117A3.681 3.681 0 0 0 189.5 91.3Z" data-name="Path 188"/><path fill="#e1147b" d="M136.171 175.864H72.338a3.675 3.675 0 0 0-1.638 6.964l.234.117a3.657 3.657 0 0 0 1.637.382h63.364a3.662 3.662 0 0 0 1.638-.382l.233-.117a3.675 3.675 0 0 0-1.635-6.964Z" data-name="Path 189"/><path fill="#e1147b" d="M175.169 158.951h-63.831a3.676 3.676 0 0 0-1.637 6.964l.233.117a3.668 3.668 0 0 0 1.638.381h63.36a3.665 3.665 0 0 0 1.638-.381l.233-.117a3.676 3.676 0 0 0-1.634-6.964Z" data-name="Path 190"/><path fill="#e1147b" d="m88.131 148.326-.108-.116a3.674 3.674 0 0 1 2.694-6.173h103.6a3.674 3.674 0 0 1 2.694 6.173l-.108.116a3.7 3.7 0 0 1-2.693 1.174H90.824a3.7 3.7 0 0 1-2.693-1.174Z" data-name="Path 191"/><path fill="#e1147b" d="M26.427 142.038h49.472a3.676 3.676 0 0 1 1.637 6.964l-.233.117a3.657 3.657 0 0 1-1.637.382h-49a3.658 3.658 0 0 1-1.638-.382l-.233-.117a3.676 3.676 0 0 1 1.632-6.964Z" data-name="Path 192"/><path fill="#e1147b" d="M38.272 95.031a3.729 3.729 0 1 1-3.73-3.731 3.73 3.73 0 0 1 3.73 3.731Z" data-name="Path 193"/><path fill="#e1147b" d="m126.183 112.952.031-.116a3.672 3.672 0 0 0-3.549-4.622H19.049a3.671 3.671 0 0 0-3.549 4.622l.032.116a3.681 3.681 0 0 0 3.547 2.724h103.556a3.683 3.683 0 0 0 3.548-2.724" data-name="Path 194"/><path fill="#e1147b" d="M9.457 111.944a3.729 3.729 0 1 1-3.729-3.731 3.731 3.731 0 0 1 3.729 3.731Z" data-name="Path 195"/><path fill="#e1147b" d="M38.272 128.857a3.729 3.729 0 1 1-3.73-3.731 3.731 3.731 0 0 1 3.73 3.731Z" data-name="Path 196"/><path fill="#e1147b" d="M101.748 162.683a3.729 3.729 0 1 1-3.73-3.731 3.73 3.73 0 0 1 3.73 3.731Z" data-name="Path 197"/><path fill="#e1147b" d="M62.746 179.596a3.729 3.729 0 1 1-3.729-3.731 3.73 3.73 0 0 1 3.729 3.731Z" data-name="Path 198"/></svg>
