<svg xmlns="http://www.w3.org/2000/svg" width="28" height="28" fill="none"><path fill="#DF42AB" fill-rule="evenodd" d="M28 14c0 7.732-6.268 14-14 14S0 21.732 0 14 6.268 0 14 0s14 6.268 14 14ZM8.585 8.052l5.238 5.238V8.315a.373.373 0 0 1 .377-.374h5.918a.374.374 0 0 1 .369.374v5.85a.38.38 0 0 1 .002.043V20.1a.376.376 0 0 1-.525.348.382.382 0 0 1-.128-.085h-.003l-5.237-5.238V20.1a.374.374 0 0 1-.374.377H8.306a.373.373 0 0 1-.376-.377v-5.893c0-.03.003-.06.01-.09V8.315a.377.377 0 0 1 .645-.263Z" clip-rule="evenodd"/></svg>
