<svg xmlns="http://www.w3.org/2000/svg" width="166" height="166" fill="none">
  <path fill="#162F29" d="M0 0h166v166H0z"/>
  <path fill="#fff" d="M133 83.268c0 .507-.007 1.014-.022 1.52h-24.319v-1.107H85.252c0-.232.008-.464.008-.688 0-.225 0-.464-.008-.688h23.407v-1.101h24.298c.029.688.043 1.376.043 2.064Zm-48.16-4.99 22.907-2.817.137 1.1 24.189-2.976a50.918 50.918 0 0 0-.818-3.512l-23.813 2.933.138 1.1-23.016 2.832c.102.45.196.898.276 1.355v-.015Zm-1.195-4.432 21.893-5.468.268 1.072 23.233-5.801a53.188 53.188 0 0 0-1.543-3.31l-22.552 5.635.268 1.072-22.074 5.518c.18.427.347.855.507 1.29v-.008Zm-1.941-4.15 20.466-7.727.391 1.035 21.654-8.176a47.015 47.015 0 0 0-2.223-2.998l-20.698 7.814.391 1.036L80.972 68.5c.254.391.5.79.732 1.195Zm-2.687-3.838 18.076-9.422.507.985 19.989-10.422a50.451 50.451 0 0 0-2.861-2.556l-18.786 9.791.507.985-18.38 9.581c.318.348.636.696.94 1.058h.008Zm-4.36-4.143 16.367-10.407.594.934 18.062-11.486a49.15 49.15 0 0 0-3.491-2.027l-16.49 10.486.594.934-16.838 10.704c.413.276.81.565 1.21.862h-.008Zm-3.867-2.419L84.506 48.05l.703.855 15.447-12.674c-1.31-.5-2.657-.949-4.019-1.34L82.935 46.13l.702.855-14.216 11.66c.463.202.92.42 1.369.651Zm-5.12-1.991L76.504 46.52l.775.782 13.767-13.68a51.802 51.802 0 0 0-4.54-.543L74.765 44.76l.775.782-11.443 11.385c.529.109 1.05.232 1.572.377Zm-5.99-.905 8.64-10.473.855.703L80.422 33c-1.71.08-3.397.246-5.055.492L66.408 44.35l.855.702-9.357 11.341a28.873 28.873 0 0 1 1.774 0v.008Zm-5.178.31 6.656-10.297.927.6 8.046-12.456a50.229 50.229 0 0 0-5.388 1.73l-5.664 8.771.927.601-7.373 11.414a26.662 26.662 0 0 1 1.869-.37v.008Zm-5.75 1.601 4.787-8.973.97.522 6.337-11.87a50.269 50.269 0 0 0-5.859 3.36l-3.643 6.822.978.522-5.634 10.559a25.11 25.11 0 0 1 2.056-.934l.008-.008Zm-4.128 2.108 2.035-5.78 1.043.37 3.954-11.225a51.122 51.122 0 0 0-5.635 5.207l-1.702 4.83 1.043.37-2.665 7.56c.623-.47 1.26-.912 1.92-1.325l.007-.007Zm-5.077 4.135.898-4.2 1.079.232 1.81-8.46a50.504 50.504 0 0 0-5.033 7.764l.804.174-1.651 6.952a26.108 26.108 0 0 1 2.093-2.462Zm-3.73 4.91v-5.562c-1.347 3.556-2.303 7.981-2.817 12.32a26.495 26.495 0 0 1 2.817-6.758Zm-2.78 20.445a49.95 49.95 0 0 0 2.744 10.668V96.47a26.526 26.526 0 0 1-2.745-6.561Zm4.59 9.306 1.442 6.721-.804.174a50.11 50.11 0 0 0 5.033 7.763l-1.81-8.458-1.08.231-.912-4.251a25.6 25.6 0 0 1-1.868-2.187v.007Zm5.02 4.997 2.68 7.605-1.044.369 1.702 4.831a51.266 51.266 0 0 0 5.635 5.207l-3.955-11.226-1.042.37-2.043-5.809a29.276 29.276 0 0 1-1.926-1.332l-.007-.015Zm3.997 2.513 5.65 10.588-.978.522 3.642 6.822a50.212 50.212 0 0 0 5.86 3.36l-6.338-11.87-.977.522-4.802-8.995a26.48 26.48 0 0 1-2.064-.941l.007-.008Zm5.946 2.188 7.38 11.428-.927.601 5.663 8.77a50.118 50.118 0 0 0 5.388 1.731l-8.046-12.457-.927.601-6.662-10.312a27.09 27.09 0 0 1-1.876-.37l.007.008Zm5.272.695 9.357 11.341-.854.703 8.958 10.856a50.57 50.57 0 0 0 5.055.492l-11.247-13.637-.854.702-8.64-10.472c-.312.015-.63.015-.949.015-.275 0-.558 0-.833-.015l.007.015Zm6.207-.536 11.435 11.377-.775.782 11.74 11.682a51.953 51.953 0 0 0 4.54-.543l-13.76-13.688-.781.79-10.828-10.777c-.514.138-1.042.268-1.571.377Zm5.33-1.702 14.202 11.653-.702.854 13.702 11.24a50.09 50.09 0 0 0 4.019-1.34l-15.455-12.674-.702.855-13.702-11.24c-.45.232-.906.449-1.37.652h.008Zm4.027-2.216 16.816 10.697-.594.934 16.491 10.486a50.118 50.118 0 0 0 3.49-2.027l-18.062-11.486-.593.934-16.346-10.393c-.398.297-.797.587-1.21.862l.008-.007Zm4.635-3.94 18.359 9.567-.507.985 18.786 9.791a50.212 50.212 0 0 0 2.861-2.556l-19.989-10.422-.507.985-18.054-9.407c-.305.362-.616.717-.942 1.057h-.007Zm2.904-3.708 20.684 7.814-.391 1.036 20.698 7.814c.775-.97 1.513-1.97 2.223-2.998l-21.654-8.176-.391 1.035-20.438-7.72c-.231.406-.478.804-.731 1.195Zm2.165-4.055 22.038 5.504-.268 1.071 22.552 5.635a48.89 48.89 0 0 0 1.55-3.31l-23.233-5.8-.268 1.071-21.864-5.46c-.159.434-.333.861-.507 1.288Zm1.434-4.375 22.98 2.825-.138 1.1 23.812 2.933c.312-1.158.587-2.331.819-3.512l-24.189-2.977-.138 1.101-22.87-2.817c-.08.456-.174.905-.276 1.354v-.007Z"/>
</svg>
