<svg xmlns="http://www.w3.org/2000/svg" width="512" height="512" fill="none"><path fill="#2A7DE1" fill-rule="evenodd" d="M265.233 2.545a19.298 19.298 0 0 0-19.156 0l-205.5 118.734A19.02 19.02 0 0 0 31 137.758v237.47a19.017 19.017 0 0 0 9.578 16.479l83.242 48.17V199.168a19.291 19.291 0 0 1 9.014-16.057l56.34-34.93 56.34-34.508a19.022 19.022 0 0 1 20 0l56.34 34.508 56.34 34.93a19.3 19.3 0 0 1 9.014 16.339v113.945a19.007 19.007 0 0 1-9.014 16.339l-56.34 35.071-56.34 34.367c-5.352 3.38-10.704-2.113-10.704-8.451V345.65a18.457 18.457 0 0 1 10.704-14.085l47.185-29.156a19.294 19.294 0 0 0 9.014-16.338V239.45a18.867 18.867 0 0 0-9.014-15.915l-46.903-28.17a19.013 19.013 0 0 0-20 0l-46.763 28.17a18.741 18.741 0 0 0-9.296 15.915v234.793c.07.844.07 1.692 0 2.536l56.34 32.676a19.293 19.293 0 0 0 19.156 0l205.64-118.734a19.018 19.018 0 0 0 9.578-16.479V137.758a19.014 19.014 0 0 0-9.578-16.479L265.233 2.545Z" clip-rule="evenodd"/></svg>
