<svg xmlns="http://www.w3.org/2000/svg" width="372" height="466" fill="none"><path fill="#fff" d="M232.499 186.632c0 25.698-20.821 46.535-46.5 46.535v46.535c51.358 0 93-41.673 93-93.07 0-51.397-41.642-93.07-93-93.07-16.931 0-32.83 4.525-46.5 12.46-27.804 16.08-46.5 46.156-46.5 80.61v232.675l41.81 41.841 4.69 4.693V186.632c0-25.698 20.82-46.535 46.5-46.535 25.679 0 46.5 20.837 46.5 46.535Z"/><path fill="#fff" d="M186 .5c-33.881 0-65.638 9.071-93 24.92a186.007 186.007 0 0 0-46.5 38.116C17.561 96.348 0 139.452 0 186.64v139.604l46.5 46.535V186.64c0-41.337 17.96-78.485 46.5-104.057 13.418-11.996 29.17-21.468 46.5-27.571 14.533-5.178 30.201-7.977 46.5-7.977 77.037 0 139.5 62.509 139.5 139.605 0 77.095-62.463 139.604-139.5 139.604v46.535c102.737 0 186-83.346 186-186.139C372 83.846 288.737.5 186 .5Z"/></svg>
