<svg xmlns="http://www.w3.org/2000/svg" width="903" height="1000" fill="none"><path fill="#FF931E" d="M451.431 274.852c75.898 0 137.426-61.528 137.426-137.426S527.329 0 451.431 0c-75.899 0-137.426 61.528-137.426 137.426s61.527 137.426 137.426 137.426Z"/><path fill="#FF931E" d="M833.544 562.252c-65.768-37.911-149.789-15.334-187.701 50.434-13.052 22.63-18.916 47.41-18.359 71.738 1.38 60.568-53.086 92.086-104.873 60.807a131.735 131.735 0 0 0-6.261-3.608c-52.371-29.237-52.344-91.503.053-120.712 42.899-23.241 72.056-68.687 72.056-120.898 0-1.061-.053-2.096-.08-3.131l.053.08c-1.353-60.648 53.246-92.139 105.086-60.621 41.52 25.203 95.164 27.564 140.185 1.538 65.715-37.964 88.213-122.038 50.248-187.753-37.964-65.716-122.038-88.213-187.753-50.248-44.996 25.999-69.695 73.568-68.66 122.091 1.353 60.515-53.061 92.007-104.794 60.781-20.88-12.788-45.394-20.163-71.658-20.163-26.265 0-50.779 7.375-71.632 20.136-51.627 31.12-105.881-.318-104.502-60.701 1.061-48.629-23.771-96.304-68.899-122.277-65.794-37.832-149.815-15.175-187.647 50.619-37.832 65.795-15.175 149.816 50.62 187.648 44.968 25.867 98.453 23.453 139.893-1.671 51.707-31.386 106.173.079 104.794 60.568l.053-.08c0 1.061-.08 2.123-.08 3.21 0 52.238 29.13 97.658 72.056 120.898 52.423 29.236 52.397 91.582-.053 120.765-2.122 1.141-4.192 2.361-6.235 3.608-51.627 31.067-105.855-.398-104.475-60.78.583-24.434-5.333-49.346-18.465-72.056-38.044-65.689-122.118-88.08-187.807-50.062-65.821 38.017-88.213 122.091-50.195 187.78 38.044 65.688 122.118 88.08 187.807 50.062.849-.504 1.671-1.034 2.52-1.539l-.079.107c51.76-31.412 106.226.079 104.82 60.594l.053-.079c0 1.114-.079 2.255-.079 3.369.079 75.903 61.656 137.374 137.558 137.294 75.903-.08 137.373-61.657 137.294-137.559 0-1.008-.053-2.016-.08-3.025l.053.08c-1.379-60.674 53.246-92.192 105.112-60.674l-.079-.133c.955.584 1.857 1.167 2.812 1.724 65.768 37.912 149.789 15.335 187.701-50.433 37.911-65.769 15.334-149.789-50.434-187.701l.053-.027Z"/></svg>
