<svg xmlns="http://www.w3.org/2000/svg" xml:space="preserve" id="Layer_1" x="0" y="0" style="enable-background:new 0 0 24 24" version="1.1" viewBox="0 0 24 24"><style>.st2{fill:#101010}</style><path d="M21.6 16V2.7c0-1.1-.9-2-2-2H6.1C3.2.7.8 3.2.8 6.2c0 1 .3 1.9.7 2.6.3.6.9 1.2 1.4 1.7.1.2.1.1.5.4.6.4 1.4.6 1.4.6v7.9c0 .4.1.7.2 1.1.3 1.1 1.1 2 2.1 2.4.4.2.9.3 1.4.3h10.8c2.2 0 3.9-1.8 3.9-4 0-1.3-.7-2.4-1.6-3.2z" style="fill:#ffeeda"/><path d="M21.9 19.3c0 1.4-1.2 2.6-2.6 2.6h-7.4c.6-.7 1-1.6 1-2.6 0-1.6-.9-2.6-.9-2.6h7.4c1.3-.1 2.5 1.1 2.5 2.6z" style="fill:#ebc28e"/><path d="M3.6 9.4c-.9-.8-1.5-1.9-1.5-3.2v-.1c.1-2.2 1.8-3.9 3.9-4h13.5c.4 0 .6.3.6.6v11.7c.3.1.5.1.8.2l.6.3V2.7c0-1.1-.9-2-2-2H6.1C3.2.7.8 3.2.8 6.2c0 1.7.8 3.2 2 4.3.2.1.2.2.5.2.4 0 .7-.3.7-.7-.1-.3-.2-.4-.4-.6z" class="st2"/><path d="M19.3 15.2H8.7c-.7 0-1.3.6-1.3 1.3v1.6c0 .7.6 1.3 1.3 1.3h.8v-1.3h-.8v-1.5h.4c1.3 0 2.3 1.3 2.3 2.6 0 1.2-1.1 2.8-2.9 2.6-1.6-.1-2.5-1.6-2.5-2.6V6c0-.6-.5-1.1-1.1-1.1H4v1.4h.8v13c0 2.6 1.8 4 3.8 4h10.7c2.2 0 3.9-1.8 3.9-4 0-2.3-1.8-4.1-3.9-4.1zm2.6 4.1c0 1.4-1.2 2.6-2.6 2.6h-7.4c.6-.7 1-1.6 1-2.6 0-1.6-.9-2.6-.9-2.6h7.4c1.3-.1 2.5 1.1 2.5 2.6zM16.4 6.5h-8V5.2h8c.4 0 .7.3.7.7 0 .3-.3.6-.7.6z" class="st2"/><path d="M16.4 12.9h-8v-1.4h8c.4 0 .7.3.7.7 0 .4-.3.7-.7.7zM17.8 9.7H8.4V8.4h9.4c.4 0 .7.3.7.7 0 .3-.3.6-.7.6z" class="st2"/></svg>
