<?xml version="1.0" encoding="utf-8"?>
<!-- Generator: Adobe Illustrator 28.1.0, SVG Export Plug-In . SVG Version: 6.00 Build 0)  -->
<svg version="1.1" id="Layer_1" focusable="false" xmlns="http://www.w3.org/2000/svg" xmlns:xlink="http://www.w3.org/1999/xlink"
	 x="0px" y="0px" viewBox="0 0 24 24" style="enable-background:new 0 0 24 24;" xml:space="preserve">
<style type="text/css">
	.st0{fill:#FFEEDA;}
	.st1{fill:#EBC28E;}
	.st2{fill:#101010;}
</style>
<path class="st0" d="M21.6,16V2.7c0-1.1-0.9-2-2-2H6.1c-2.9,0-5.3,2.5-5.3,5.5c0,1,0.3,1.9,0.7,2.6c0.3,0.6,0.9,1.2,1.4,1.7
	C3,10.7,3,10.6,3.4,10.9c0.6,0.4,1.4,0.6,1.4,0.6l0,7.9c0,0.4,0.1,0.7,0.2,1.1c0.3,1.1,1.1,2,2.1,2.4c0.4,0.2,0.9,0.3,1.4,0.3
	l10.8,0c2.2,0,3.9-1.8,3.9-4C23.2,17.9,22.5,16.8,21.6,16z"/>
<path class="st1" d="M21.9,19.3c0,1.4-1.2,2.6-2.6,2.6l-7.4,0c0.6-0.7,1-1.6,1-2.6c0-1.6-0.9-2.6-0.9-2.6h7.4
	C20.7,16.6,21.9,17.8,21.9,19.3L21.9,19.3z"/>
<path class="st2" d="M3.6,9.4C2.7,8.6,2.1,7.5,2.1,6.2V6.1c0.1-2.2,1.8-3.9,3.9-4h13.5c0.4,0,0.6,0.3,0.6,0.6v11.7
	c0.3,0.1,0.5,0.1,0.8,0.2c0.2,0.1,0.6,0.3,0.6,0.3V2.7c0-1.1-0.9-2-2-2H6.1c-2.9,0-5.3,2.5-5.3,5.5c0,1.7,0.8,3.2,2,4.3
	C3,10.6,3,10.7,3.3,10.7c0.4,0,0.7-0.3,0.7-0.7C3.9,9.7,3.8,9.6,3.6,9.4z"/>
<path class="st2" d="M19.3,15.2H8.7c-0.7,0-1.3,0.6-1.3,1.3v1.6c0,0.7,0.6,1.3,1.3,1.3h0.8v-1.3H8.7v-1.5c0,0,0.2,0,0.4,0
	c1.3,0,2.3,1.3,2.3,2.6c0,1.2-1.1,2.8-2.9,2.6c-1.6-0.1-2.5-1.6-2.5-2.6V6c0-0.6-0.5-1.1-1.1-1.1H4v1.4h0.8v13c0,2.6,1.8,4,3.8,4
	l10.7,0c2.2,0,3.9-1.8,3.9-4C23.2,17,21.4,15.2,19.3,15.2z M21.9,19.3c0,1.4-1.2,2.6-2.6,2.6l-7.4,0c0.6-0.7,1-1.6,1-2.6
	c0-1.6-0.9-2.6-0.9-2.6h7.4C20.7,16.6,21.9,17.8,21.9,19.3L21.9,19.3z"/>
<path class="st2" d="M16.4,6.5h-8V5.2h8c0.4,0,0.7,0.3,0.7,0.7C17.1,6.2,16.8,6.5,16.4,6.5z"/>
<path class="st2" d="M16.4,12.9h-8v-1.4h8c0.4,0,0.7,0.3,0.7,0.7C17.1,12.6,16.8,12.9,16.4,12.9z"/>
<path class="st2" d="M17.8,9.7H8.4V8.4h9.4c0.4,0,0.7,0.3,0.7,0.7C18.5,9.4,18.2,9.7,17.8,9.7z"/>
</svg>
