<svg xmlns="http://www.w3.org/2000/svg" xml:space="preserve" viewBox="0 0 52 56"><path fill="#010101" d="M36.005 57H1.003L1.001 1.003c17.33 0 34.662 0 51.995-.002L53 56.997C47.502 57 42.004 57 36.005 57m-10.07-46.122c-1.962 1.171-4.351 1.96-5.804 3.587-4.035 4.518-3.536 6.962 1.598 10.308 1.225.798 2.623 1.337 3.957 1.961 5.711 2.67 11.429 5.325 18.115 8.438l7.794-6.57c-2.463-1.904-3.986-3.49-5.838-4.432-5.01-2.549-10.291-4.59-15.19-7.323-1.898-1.058-3.059-3.438-4.633-5.969M36.982 43.24c3.528-4.77 3.078-7.405-1.988-10.36-1.693-.987-3.66-1.493-5.443-2.34-5.091-2.422-10.153-4.906-16.236-7.854l-8.893 7.087c5.77 3.044 10.376 5.365 14.875 7.877 4.664 2.604 11.33 2.844 12.083 10.779 1.991-1.791 3.56-3.203 5.602-5.189m-4.19-27.652 5.144 2.037.896-1.296L28.89 7.38c-.862 4.862.365 6.844 3.902 8.207m-4.28 31.13c-1.5-4.573-5.298-5.082-9.486-5.14 1.953 2.652 4.208 4.934 6.693 6.93.388.311 1.824-.682 2.794-1.79z"/><path fill="#797979" d="M25.973 11.254c1.535 2.155 2.696 4.535 4.593 5.593 4.9 2.734 10.18 4.774 15.191 7.323 1.852.941 3.375 2.528 5.838 4.432l-7.794 6.57c-6.686-3.113-12.404-5.769-18.115-8.438-1.334-.624-2.732-1.163-3.957-1.961-5.134-3.346-5.633-5.79-1.598-10.308 1.453-1.626 3.842-2.416 5.842-3.21zM36.746 43.526c-1.806 1.7-3.375 3.11-5.366 4.902-.753-7.935-7.42-8.175-12.083-10.779-4.499-2.512-9.105-4.833-14.875-7.877l8.893-7.087c6.083 2.948 11.145 5.432 16.236 7.853 1.784.848 3.75 1.354 5.443 2.341 5.066 2.955 5.516 5.59 1.752 10.647z"/><path fill="#6C6C6C" d="M32.46 15.458c-3.205-1.234-4.432-3.216-3.57-8.078l9.942 8.948-.896 1.296c-1.715-.68-3.43-1.358-5.476-2.166z"/><path fill="#6D6D6D" d="M28.504 47.076c-.961.749-2.397 1.742-2.785 1.43-2.485-1.995-4.74-4.277-6.693-6.928 4.188.057 7.986.566 9.478 5.498z"/></svg>
