<svg xmlns="http://www.w3.org/2000/svg" width="256" height="256" fill="none"><path fill="#fff" fill-rule="evenodd" d="M127.674 256c38.025 0 72.188-16.497 95.687-42.707-10.932-9.476-27.405-10.051-39.042-.685l-2.223 1.79c-21.307 17.148-52.355 14.616-70.585-5.758-9.943-11.112-26.972-12.247-38.309-2.553l-25.632 21.92C69.524 245.524 97.373 256 127.674 256Zm41.607-61.981c20.295-16.335 48.82-15.749 68.34.027C249.287 174.764 256 152.164 256 128c0-26.85-8.288-51.77-22.451-72.35-9.131-1.94-19.028.325-26.54 6.966l-2.14 1.89c-20.49 18.111-51.621 17.01-70.776-2.502-10.446-10.643-27.51-10.992-38.385-.787L65.879 89.21 49.47 71.81 79.3 43.82c20.373-19.118 52.337-18.464 71.906 1.473 10.225 10.417 26.844 11.004 37.782 1.335l2.139-1.89a54.19 54.19 0 0 1 22.366-11.906C190.756 12.422 160.669 0 127.674 0 62.53 0 8.724 48.417.451 111.142c19.786-9.471 44.193-5.827 60.326 10.652 10.185 10.403 26.585 11.501 38.072 2.55l16.678-12.997c20.96-16.333 50.59-15.542 70.644 1.885l32.47 28.218-15.73 18.01-32.47-28.217c-11.404-9.91-28.252-10.36-40.17-1.073l-16.678 12.997c-21.107 16.447-51.237 14.43-69.95-4.684-10.88-11.115-28.677-11.503-40.034-.873L0 140.988c2.7 26.734 13.65 51.041 30.27 70.35l27.346-23.385c21.236-18.16 53.135-16.035 71.761 4.781 9.733 10.877 26.306 12.228 37.68 3.074z" clip-rule="evenodd" style="stroke-width:6.82333"/></svg>
