<svg width="60" height="60" viewBox="-.5 -2 60 60" fill="none" xmlns="http://www.w3.org/2000/svg">
    <g id="Frame 1116602412">
        <g id="Logo">
            <g id="Vector_6">
                <path d="M35.5379 35.0248C24.6296 38.2 15.606 42.8312 9.9576 48.2576L9.70823 48.4984C11.2102 49.876 12.8572 51.108 14.6375 52.1552L15.0203 51.7016C16.5629 49.876 18.2157 48.112 19.938 46.4488C24.56 41.9856 29.8488 38.1216 35.5437 35.0192L35.5379 35.0248Z" fill="url(#paint0_radial_1008_2751)"/>
                <path d="M35.5379 35.0248C24.6296 38.2 15.606 42.8312 9.9576 48.2576L9.70823 48.4984C11.2102 49.876 12.8572 51.108 14.6375 52.1552L15.0203 51.7016C16.5629 49.876 18.2157 48.112 19.938 46.4488C24.56 41.9856 29.8488 38.1216 35.5437 35.0192L35.5379 35.0248Z" fill="#F5F5F5"/>
                <path d="M0.789062 30.3207C1.224 35.9823 3.3929 41.1735 6.79703 45.3959L6.95361 45.2447C10.4505 41.9015 15.0029 38.8607 20.4947 36.2119C25.3081 33.8879 30.8347 31.8943 36.7905 30.3207H0.789062Z" fill="url(#paint1_radial_1008_2751)"/>
                <path d="M0.789062 30.3207C1.224 35.9823 3.3929 41.1735 6.79703 45.3959L6.95361 45.2447C10.4505 41.9015 15.0029 38.8607 20.4947 36.2119C25.3081 33.8879 30.8347 31.8943 36.7905 30.3207H0.789062Z" fill="#F5F5F5"/>
                <path d="M22.9884 7.05273C32.7484 16.4775 45.0311 22.7103 58.5027 25.0735C56.8789 11.1015 44.6078 0.231934 29.6981 0.231934C25.7604 0.231934 22.0083 0.993534 18.581 2.36553C19.9728 3.98953 21.4574 5.56873 22.9884 7.05273Z" fill="url(#paint2_radial_1008_2751)"/>
                <path d="M22.9884 7.05273C32.7484 16.4775 45.0311 22.7103 58.5027 25.0735C56.8789 11.1015 44.6078 0.231934 29.6981 0.231934C25.7604 0.231934 22.0083 0.993534 18.581 2.36553C19.9728 3.98953 21.4574 5.56873 22.9884 7.05273Z" fill="#F5F5F5"/>
                <path d="M9.9576 8.20635C15.606 13.6384 24.6296 18.264 35.5379 21.4448C29.843 18.3368 24.5542 14.4784 19.9322 10.0152C18.2157 8.35755 16.5629 6.59355 15.0145 4.76235L14.6318 4.30875C12.8514 5.35595 11.2044 6.58795 9.70823 7.96555L9.9576 8.20635Z" fill="url(#paint3_radial_1008_2751)"/>
                <path d="M9.9576 8.20635C15.606 13.6384 24.6296 18.264 35.5379 21.4448C29.843 18.3368 24.5542 14.4784 19.9322 10.0152C18.2157 8.35755 16.5629 6.59355 15.0145 4.76235L14.6318 4.30875C12.8514 5.35595 11.2044 6.58795 9.70823 7.96555L9.9576 8.20635Z" fill="#F5F5F5"/>
                <path d="M22.9884 49.4111C21.4516 50.8951 19.967 52.4743 18.581 54.0983C22.0025 55.4703 25.7604 56.2319 29.6981 56.2319C44.6078 56.2319 56.8789 45.3623 58.5085 31.3847C45.0369 33.7479 32.7542 39.9807 22.9942 49.4055L22.9884 49.4111Z" fill="url(#paint4_radial_1008_2751)"/>
                <path d="M22.9884 49.4111C21.4516 50.8951 19.967 52.4743 18.581 54.0983C22.0025 55.4703 25.7604 56.2319 29.6981 56.2319C44.6078 56.2319 56.8789 45.3623 58.5085 31.3847C45.0369 33.7479 32.7542 39.9807 22.9942 49.4055L22.9884 49.4111Z" fill="#F5F5F5"/>
                <path d="M20.4947 20.2519C15.0029 17.6031 10.4505 14.5623 6.95361 11.2191L6.79703 11.0679C3.3929 15.2903 1.224 20.4815 0.789062 26.1431H36.7847C30.8289 24.5695 25.3081 22.5759 20.4889 20.2463L20.4947 20.2519Z" fill="url(#paint5_radial_1008_2751)"/>
                <path d="M20.4947 20.2519C15.0029 17.6031 10.4505 14.5623 6.95361 11.2191L6.79703 11.0679C3.3929 15.2903 1.224 20.4815 0.789062 26.1431H36.7847C30.8289 24.5695 25.3081 22.5759 20.4889 20.2463L20.4947 20.2519Z" fill="#F5F5F5"/>
            </g>
        </g>
    </g>
    <defs>
        <radialGradient id="paint0_radial_1008_2751" cx="0" cy="0" r="1" gradientUnits="userSpaceOnUse" gradientTransform="translate(29.6488 28.2319) rotate(90) scale(28 28.8597)">
            <stop stop-color="#1C294B"/>
            <stop offset="0.317213" stop-color="#FF4433"/>
            <stop offset="0.597213" stop-color="#FE9A4C"/>
            <stop offset="1" stop-color="#E0E0E0"/>
        </radialGradient>
        <radialGradient id="paint1_radial_1008_2751" cx="0" cy="0" r="1" gradientUnits="userSpaceOnUse" gradientTransform="translate(29.6488 28.2319) rotate(90) scale(28 28.8597)">
            <stop stop-color="#1C294B"/>
            <stop offset="0.317213" stop-color="#FF4433"/>
            <stop offset="0.597213" stop-color="#FE9A4C"/>
            <stop offset="1" stop-color="#E0E0E0"/>
        </radialGradient>
        <radialGradient id="paint2_radial_1008_2751" cx="0" cy="0" r="1" gradientUnits="userSpaceOnUse" gradientTransform="translate(29.6488 28.2319) rotate(90) scale(28 28.8597)">
            <stop stop-color="#1C294B"/>
            <stop offset="0.317213" stop-color="#FF4433"/>
            <stop offset="0.597213" stop-color="#FE9A4C"/>
            <stop offset="1" stop-color="#E0E0E0"/>
        </radialGradient>
        <radialGradient id="paint3_radial_1008_2751" cx="0" cy="0" r="1" gradientUnits="userSpaceOnUse" gradientTransform="translate(29.6488 28.2319) rotate(90) scale(28 28.8597)">
            <stop stop-color="#1C294B"/>
            <stop offset="0.317213" stop-color="#FF4433"/>
            <stop offset="0.597213" stop-color="#FE9A4C"/>
            <stop offset="1" stop-color="#E0E0E0"/>
        </radialGradient>
        <radialGradient id="paint4_radial_1008_2751" cx="0" cy="0" r="1" gradientUnits="userSpaceOnUse" gradientTransform="translate(29.6488 28.2319) rotate(90) scale(28 28.8597)">
            <stop stop-color="#1C294B"/>
            <stop offset="0.317213" stop-color="#FF4433"/>
            <stop offset="0.597213" stop-color="#FE9A4C"/>
            <stop offset="1" stop-color="#E0E0E0"/>
        </radialGradient>
        <radialGradient id="paint5_radial_1008_2751" cx="0" cy="0" r="1" gradientUnits="userSpaceOnUse" gradientTransform="translate(29.6488 28.2319) rotate(90) scale(28 28.8597)">
            <stop stop-color="#1C294B"/>
            <stop offset="0.317213" stop-color="#FF4433"/>
            <stop offset="0.597213" stop-color="#FE9A4C"/>
            <stop offset="1" stop-color="#E0E0E0"/>
        </radialGradient>
    </defs>
</svg>
