<svg xmlns="http://www.w3.org/2000/svg" width="160" height="160" fill="none" viewBox="0 0 110 160"><path fill="#6FBCF0" fill-rule="evenodd" d="M7.444 132.216C17.37 149.615 35.15 160 55 160s37.627-10.385 47.556-27.784c9.925-17.394 9.925-38.165 0-55.563L60.73 3.347c-2.547-4.463-8.913-4.463-11.46 0L7.444 76.653c-9.925 17.394-9.925 38.165 0 55.563Zm35.773-93.994 8.918-15.63c1.273-2.232 4.457-2.232 5.73 0l34.307 60.13c6.303 11.046 7.486 23.831 3.55 35.531a37.708 37.708 0 0 0-1.756-5.835c-4.739-12.101-15.454-21.439-31.853-27.757-11.275-4.327-18.472-10.692-21.396-18.919-3.767-10.603.167-22.165 2.5-27.52ZM28.012 64.874 17.828 82.722c-7.76 13.599-7.76 29.833 0 43.432 7.76 13.6 21.653 21.715 37.172 21.715 10.307 0 19.9-3.583 27.454-9.975.985-2.509 4.036-11.696.267-21.165-3.48-8.743-11.858-15.723-24.9-20.75-14.743-5.659-24.322-14.493-28.463-26.25a37.174 37.174 0 0 1-1.347-4.855Z" clip-rule="evenodd"/></svg>
