<svg fill="none" height="180" viewBox="0 0 180 180" width="180" xmlns="http://www.w3.org/2000/svg"><g fill="#fff"><path clip-rule="evenodd" d="m90 172c45.287 0 82-36.713 82-82 0-45.2873-36.713-82-82-82-45.2873 0-82 36.7127-82 82 0 45.287 36.7127 82 82 82zm90-82c0 49.706-40.294 90-90 90-49.7056 0-90-40.294-90-90 0-49.7056 40.2944-90 90-90 49.706 0 90 40.2944 90 90z" fill-rule="evenodd"/><path d="m106.69 22.47 3.63 50.41 49.06 12.12-46.82 19.03 3.63 50.41-32.5599-38.65-46.82 19.04 26.69-42.92-32.57-38.65 49.06 12.13z"/></g></svg>