<svg xmlns="http://www.w3.org/2000/svg" width="28" height="28" fill="none"><circle cx="14" cy="14" r="14" fill="#000"/><path fill="#fff" d="M14.035 23.31a9.275 9.275 0 1 1 9.275-9.275 9.281 9.281 0 0 1-9.275 9.275Zm0-18.14a8.865 8.865 0 1 0 0 17.73 8.865 8.865 0 0 0 0-17.73Z"/><path fill="#fff" d="M14.794 22.4a8.334 8.334 0 1 1 0-16.669 8.334 8.334 0 0 1 0 16.669Zm0-16.308a7.98 7.98 0 1 0 7.98 7.98 7.991 7.991 0 0 0-7.98-7.98Z"/><path fill="#fff" d="M15.554 21.496a7.395 7.395 0 1 1 0-14.79 7.395 7.395 0 0 1 0 14.79Zm0-14.464a7.093 7.093 0 1 0 7.093 7.07 7.1 7.1 0 0 0-7.093-7.088"/><path fill="#fff" d="M16.313 20.586a6.448 6.448 0 1 1 0-12.897 6.448 6.448 0 0 1 0 12.897Zm0-12.656a6.208 6.208 0 1 0 0 12.415 6.208 6.208 0 0 0 0-12.415Z"/><path fill="#fff" d="M17.072 19.682a5.508 5.508 0 1 1 0-11.016 5.508 5.508 0 0 1 0 11.016Zm0-10.848a5.322 5.322 0 1 0-.012 10.643 5.322 5.322 0 0 0 .012-10.643Z"/><path fill="#fff" d="M17.832 18.772a4.568 4.568 0 1 1 0-9.137 4.568 4.568 0 0 1 0 9.137Zm0-8.998a4.436 4.436 0 1 0 4.405 4.436 4.436 4.436 0 0 0-4.43-4.43"/></svg>
