<?xml version="1.0" encoding="UTF-8"?>
<svg id="Layer_1" data-name="Layer 1" xmlns="http://www.w3.org/2000/svg" xmlns:xlink="http://www.w3.org/1999/xlink" version="1.1" viewBox="0 0 64 64">
  <defs>
    <style>
      .cls-1 {
        mask: url(#mask);
      }

      .cls-2 {
        fill: url(#linear-gradient);
      }

      .cls-2, .cls-3, .cls-4, .cls-5, .cls-6 {
        stroke-width: 0px;
      }

      .cls-3 {
        fill-opacity: .3;
      }

      .cls-3, .cls-5, .cls-6 {
        fill: #fff;
      }

      .cls-4 {
        fill: #000;
      }

      .cls-5 {
        fill-opacity: .5;
      }

      .cls-7 {
        mask: url(#mask-3);
      }

      .cls-8 {
        mask: url(#mask-2);
      }

      .cls-9 {
        mask: url(#mask-1);
      }
    </style>
    <mask id="mask" x="41.5" y="40.2" width="16.3" height="16.3" maskUnits="userSpaceOnUse">
      <g id="mask0_11375_8559" data-name="mask0 11375 8559">
        <rect class="cls-4" x="52.3" y="40.2" width="5.5" height="16.3"/>
      </g>
    </mask>
    <linearGradient id="linear-gradient" x1="-2929.4" y1="50.2" x2="-2935.4" y2="51.4" gradientTransform="translate(-2877.7 66.5) rotate(-180)" gradientUnits="userSpaceOnUse">
      <stop offset="0" stop-color="#000"/>
      <stop offset="1" stop-color="#fff"/>
    </linearGradient>
    <mask id="mask-1" x="41.5" y="7.5" width="16.3" height="16.3" maskUnits="userSpaceOnUse">
      <g id="mask1_11375_8559" data-name="mask1 11375 8559">
        <rect class="cls-2" x="52.3" y="7.5" width="5.5" height="16.3"/>
      </g>
    </mask>
    <mask id="mask-2" x="47" y="7.5" width="16.3" height="16.3" maskUnits="userSpaceOnUse">
      <g id="mask2_11375_8559" data-name="mask2 11375 8559">
        <rect class="cls-4" x="60.6" y="7.5" width="2.8" height="16.3"/>
      </g>
    </mask>
    <mask id="mask-3" x="47.1" y="40.2" width="16.3" height="16.3" maskUnits="userSpaceOnUse">
      <g id="mask3_11375_8559" data-name="mask3 11375 8559">
        <rect class="cls-4" x="60.6" y="40.2" width="2.8" height="16.3"/>
      </g>
    </mask>
  </defs>
  <rect class="cls-4" width="64" height="64"/>
  <g class="cls-1">
    <path class="cls-5" d="M56.7,40.2h-14.1c-.6,0-1.1.5-1.1,1.1v14.1c0,.6.5,1.1,1.1,1.1h14.1c.6,0,1.1-.5,1.1-1.1v-14.1c0-.6-.5-1.1-1.1-1.1Z"/>
  </g>
  <g class="cls-9">
    <path class="cls-5" d="M56.7,7.5h-14.1c-.6,0-1.1.5-1.1,1.1v14.1c0,.6.5,1.1,1.1,1.1h14.1c.6,0,1.1-.5,1.1-1.1v-14.1c0-.6-.5-1.1-1.1-1.1Z"/>
  </g>
  <g class="cls-8">
    <path class="cls-3" d="M62.3,7.5h-14.1c-.6,0-1.1.5-1.1,1.1v14.1c0,.6.5,1.1,1.1,1.1h14.1c.6,0,1.1-.5,1.1-1.1v-14.1c0-.6-.5-1.1-1.1-1.1Z"/>
  </g>
  <g class="cls-7">
    <path class="cls-3" d="M62.3,40.2h-14.1c-.6,0-1.1.5-1.1,1.1v14.1c0,.6.5,1.1,1.1,1.1h14.1c.6,0,1.1-.5,1.1-1.1v-14.1c0-.6-.5-1.1-1.1-1.1Z"/>
  </g>
  <path class="cls-6" d="M32,23.9h-14.1c-.6,0-1.1.5-1.1,1.1v14c0,.6.5,1.1,1.1,1.1h14.1c.6,0,1.1-.5,1.1-1.1v-14c0-.6-.5-1.1-1.1-1.1Z"/>
  <path class="cls-6" d="M15.7,7.5H1.6c-.6,0-1.1.5-1.1,1.1v14.1c0,.6.5,1.1,1.1,1.1h14.1c.6,0,1.1-.5,1.1-1.1v-14.1c0-.6-.5-1.1-1.1-1.1Z"/>
  <path class="cls-6" d="M48.4,7.5h-14.1c-.6,0-1.1.5-1.1,1.1v14.1c0,.6.5,1.1,1.1,1.1h14.1c.6,0,1.1-.5,1.1-1.1v-14.1c0-.6-.5-1.1-1.1-1.1Z"/>
  <path class="cls-6" d="M15.7,40.2H1.6c-.6,0-1.1.5-1.1,1.1v14.1c0,.6.5,1.1,1.1,1.1h14.1c.6,0,1.1-.5,1.1-1.1v-14.1c0-.6-.5-1.1-1.1-1.1Z"/>
  <path class="cls-6" d="M48.4,40.2h-14.1c-.6,0-1.1.5-1.1,1.1v14.1c0,.6.5,1.1,1.1,1.1h14.1c.6,0,1.1-.5,1.1-1.1v-14.1c0-.6-.5-1.1-1.1-1.1Z"/>
</svg>
