<svg xmlns="http://www.w3.org/2000/svg" id="Layer_1" data-name="Layer 1" version="1.1" viewBox="0 0 64 64"><defs><mask id="mask" width="16.3" height="16.3" x="41.5" y="40.2" maskUnits="userSpaceOnUse"><path id="mask0_11375_8559" d="M52.3 40.2h5.5v16.3h-5.5z" class="cls-4" data-name="mask0 11375 8559"/></mask><mask id="mask-1" width="16.3" height="16.3" x="41.5" y="7.5" maskUnits="userSpaceOnUse"><path id="mask1_11375_8559" d="M52.3 7.5h5.5v16.3h-5.5z" data-name="mask1 11375 8559" style="stroke-width:0;fill:url(#linear-gradient)"/></mask><mask id="mask-2" width="16.3" height="16.3" x="47" y="7.5" maskUnits="userSpaceOnUse"><path id="mask2_11375_8559" d="M60.6 7.5h2.8v16.3h-2.8z" class="cls-4" data-name="mask2 11375 8559"/></mask><mask id="mask-3" width="16.3" height="16.3" x="47.1" y="40.2" maskUnits="userSpaceOnUse"><path id="mask3_11375_8559" d="M60.6 40.2h2.8v16.3h-2.8z" class="cls-4" data-name="mask3 11375 8559"/></mask><linearGradient id="linear-gradient" x1="-2929.4" x2="-2935.4" y1="50.2" y2="51.4" gradientTransform="rotate(-180 -1438.85 33.25)" gradientUnits="userSpaceOnUse"><stop offset="0"/><stop offset="1" stop-color="#fff"/></linearGradient><style>.cls-3,.cls-4,.cls-5,.cls-6{stroke-width:0}.cls-3{fill-opacity:.3}.cls-3,.cls-5,.cls-6{fill:#fff}.cls-4{fill:#000}.cls-5{fill-opacity:.5}</style></defs><path d="M0 0h64v64H0z" class="cls-4"/><path d="M56.7 40.2H42.6c-.6 0-1.1.5-1.1 1.1v14.1c0 .6.5 1.1 1.1 1.1h14.1c.6 0 1.1-.5 1.1-1.1V41.3c0-.6-.5-1.1-1.1-1.1Z" class="cls-5" style="mask:url(#mask)"/><path d="M56.7 7.5H42.6c-.6 0-1.1.5-1.1 1.1v14.1c0 .6.5 1.1 1.1 1.1h14.1c.6 0 1.1-.5 1.1-1.1V8.6c0-.6-.5-1.1-1.1-1.1Z" class="cls-5" style="mask:url(#mask-1)"/><path d="M62.3 7.5H48.2c-.6 0-1.1.5-1.1 1.1v14.1c0 .6.5 1.1 1.1 1.1h14.1c.6 0 1.1-.5 1.1-1.1V8.6c0-.6-.5-1.1-1.1-1.1Z" class="cls-3" style="mask:url(#mask-2)"/><path d="M62.3 40.2H48.2c-.6 0-1.1.5-1.1 1.1v14.1c0 .6.5 1.1 1.1 1.1h14.1c.6 0 1.1-.5 1.1-1.1V41.3c0-.6-.5-1.1-1.1-1.1Z" class="cls-3" style="mask:url(#mask-3)"/><path d="M32 23.9H17.9c-.6 0-1.1.5-1.1 1.1v14c0 .6.5 1.1 1.1 1.1H32c.6 0 1.1-.5 1.1-1.1V25c0-.6-.5-1.1-1.1-1.1ZM15.7 7.5H1.6C1 7.5.5 8 .5 8.6v14.1c0 .6.5 1.1 1.1 1.1h14.1c.6 0 1.1-.5 1.1-1.1V8.6c0-.6-.5-1.1-1.1-1.1ZM48.4 7.5H34.3c-.6 0-1.1.5-1.1 1.1v14.1c0 .6.5 1.1 1.1 1.1h14.1c.6 0 1.1-.5 1.1-1.1V8.6c0-.6-.5-1.1-1.1-1.1ZM15.7 40.2H1.6c-.6 0-1.1.5-1.1 1.1v14.1c0 .6.5 1.1 1.1 1.1h14.1c.6 0 1.1-.5 1.1-1.1V41.3c0-.6-.5-1.1-1.1-1.1ZM48.4 40.2H34.3c-.6 0-1.1.5-1.1 1.1v14.1c0 .6.5 1.1 1.1 1.1h14.1c.6 0 1.1-.5 1.1-1.1V41.3c0-.6-.5-1.1-1.1-1.1Z" class="cls-6"/></svg>
