<svg xmlns="http://www.w3.org/2000/svg" fill="none" viewBox="0 0 273 294">
  <g fill="#fff" clip-path="url(#a)">
    <path d="M144.147 151.589c9.376 0 18.47 3.33 25.396 9.856l38.813 36.515h-18.611l-29.429-27.678c-4.329-4.058-10.101-6.229-16.162-6.229-6.06 0-11.832 2.171-16.161 6.229l-29.43 27.678h-18.61l38.812-36.515c6.927-6.519 16.014-9.856 25.397-9.856h-.015Zm0-8.689c-9.376 0-18.47-3.329-25.396-9.855L79.945 96.522h18.611l29.429 27.678c4.329 4.059 10.101 6.229 16.162 6.229 6.061 0 11.833-2.17 16.162-6.229l29.429-27.678h18.611l-38.813 36.516c-6.926 6.518-16.013 9.855-25.397 9.855l.008.007ZM111.684 147.249l-40.545 34.486c-3.026 2.75-6.49 1.45-6.49-2.608v-63.763c0-4.059 3.464-5.359 6.49-2.609l40.545 34.486v.008Z"/>
  </g>
  <defs>
    <clipPath id="a">
      <path fill="#fff" d="M64 96h145v102H64z"/>
    </clipPath>
  </defs>
</svg>
